<svg width="24" height="24" viewBox="0 0 24 24" fill="none" xmlns="http://www.w3.org/2000/svg">
<path d="M12.0094 24.0187C18.6419 24.0187 24.0187 18.6419 24.0187 12.0094C24.0187 5.37677 18.6419 0 12.0094 0C5.37677 0 0 5.37677 0 12.0094C0 18.6419 5.37677 24.0187 12.0094 24.0187Z" fill="url(#paint0_linear_101_59)"/>
<path fill-rule="evenodd" clip-rule="evenodd" d="M5.4248 11.8783C8.92285 10.3444 11.2611 9.35296 12.4396 8.8666C15.7693 7.48235 16.4614 7.23917 16.9104 7.22046C17.0039 7.22046 17.2284 7.23917 17.378 7.3514C17.4903 7.44493 17.5277 7.57588 17.5464 7.66941C17.5651 7.76294 17.5838 7.96871 17.5651 8.13706C17.378 10.0264 16.6111 14.6468 16.1995 16.7606C16.0312 17.6585 15.6945 17.9578 15.3765 17.9952C14.6843 18.0513 14.1419 17.5276 13.4684 17.0973C12.4209 16.4052 11.8223 15.9749 10.7935 15.3015C9.61498 14.5159 10.3819 14.0856 11.0554 13.3935C11.2237 13.2064 14.3102 10.4192 14.3663 10.1573C14.3663 10.1199 14.385 10.0077 14.3102 9.95156C14.2354 9.89544 14.1419 9.91415 14.067 9.93285C13.9548 9.95156 12.2713 11.0739 8.99767 13.2813C8.51131 13.618 8.08107 13.7676 7.68824 13.7676C7.258 13.7676 6.43493 13.5244 5.81763 13.3187C5.06938 13.0755 4.47078 12.9445 4.5269 12.533C4.56432 12.3272 4.86361 12.1028 5.4248 11.8783Z" fill="white"/>
<defs>
<linearGradient id="paint0_linear_101_59" x1="0" y1="12.0007" x2="24.0013" y2="12.0007" gradientUnits="userSpaceOnUse">
<stop/>
<stop offset="1"/>
</linearGradient>
</defs>
</svg>
