<svg width="28" height="25" viewBox="0 0 28 25" fill="none" xmlns="http://www.w3.org/2000/svg">
<path d="M8.91927 10.9376H19.0853C19.273 10.9361 19.4581 10.8835 19.6273 10.7835C19.7965 10.6835 19.9456 10.5387 20.0638 10.3595C20.188 10.1838 20.2787 9.97613 20.3293 9.75175C20.3799 9.52737 20.389 9.29193 20.3561 9.06265L19.0853 1.2503C19.0259 0.892058 18.8662 0.57078 18.634 0.342386C18.4018 0.113993 18.1119 -0.00705376 17.8146 0.000317868H10.19C9.89274 -0.00705376 9.60276 0.113993 9.37057 0.342386C9.13838 0.57078 8.97868 0.892058 8.91927 1.2503L7.64851 9.06265C7.61214 9.28963 7.61721 9.5237 7.66336 9.74797C7.70951 9.97224 7.79558 10.1811 7.91537 10.3595C8.03631 10.5429 8.18947 10.6901 8.36335 10.7903C8.53722 10.8904 8.72729 10.9408 8.91927 10.9376ZM11.232 3.12526H16.7725L17.535 7.81267H10.4696L11.232 3.12526ZM26.7099 15.3125C26.6505 14.9543 26.4908 14.633 26.2586 14.4046C26.0264 14.1762 25.7364 14.0552 25.4391 14.0626H17.8146C17.5173 14.0552 17.2273 14.1762 16.9951 14.4046C16.7629 14.633 16.6032 14.9543 16.5438 15.3125L15.2731 23.1249C15.2367 23.3519 15.2417 23.5859 15.2879 23.8102C15.334 24.0345 15.4201 24.2434 15.5399 24.4217C15.6609 24.6051 15.814 24.7524 15.9879 24.8525C16.1618 24.9526 16.3518 25.003 16.5438 24.9999H26.7099C26.8976 24.9983 27.0827 24.9457 27.2518 24.8457C27.421 24.7458 27.5701 24.601 27.6883 24.4217C27.8126 24.246 27.9033 24.0384 27.9538 23.814C28.0044 23.5896 28.0136 23.3542 27.9806 23.1249L26.7099 15.3125ZM18.0941 21.8749L18.8566 17.1875H24.3971L25.1595 21.8749H18.0941ZM10.19 14.0626H2.56549C2.2682 14.0552 1.97822 14.1762 1.74603 14.4046C1.51384 14.633 1.35414 14.9543 1.29473 15.3125L0.0239737 23.1249C-0.0124002 23.3519 -0.00732949 23.5859 0.0388197 23.8102C0.0849688 24.0345 0.171045 24.2434 0.290833 24.4217C0.411775 24.6051 0.564935 24.7524 0.738809 24.8525C0.912682 24.9526 1.10275 25.003 1.29473 24.9999H11.4608C11.6485 24.9983 11.8336 24.9457 12.0028 24.8457C12.1719 24.7458 12.321 24.601 12.4393 24.4217C12.5635 24.246 12.6542 24.0384 12.7048 23.814C12.7553 23.5896 12.7645 23.3542 12.7315 23.1249L11.4608 15.3125C11.4014 14.9543 11.2417 14.633 11.0095 14.4046C10.7773 14.1762 10.4873 14.0552 10.19 14.0626ZM2.84505 21.8749L3.60751 17.1875H9.14801L9.91046 21.8749H2.84505Z" fill="white"/>
</svg>
