<svg width="28" height="28" viewBox="0 0 28 28" fill="none" xmlns="http://www.w3.org/2000/svg">
<path d="M12.9659 0C9.91862 0 7.30903 1.84828 6.2575 4.44441C4.0577 4.7289 2.09216 5.97118 0.961136 7.86869C-0.562157 10.4235 -0.215081 13.5346 1.58028 15.7142C0.735564 17.7004 0.863031 19.9701 1.99304 21.8666C3.51697 24.4225 6.47647 25.6869 9.32495 25.2698C10.6792 26.9717 12.772 28 15.0341 28C18.0814 28 20.691 26.1517 21.7425 23.5556C23.9423 23.2711 25.9078 22.0288 27.0389 20.1313C28.5622 17.5765 28.2151 14.4654 26.4197 12.2858C27.2644 10.2996 27.137 8.02989 26.007 6.13341C24.483 3.57755 21.5235 2.31309 18.675 2.73017C17.3208 1.02828 15.228 0 12.9659 0ZM12.9659 2.15385C14.2519 2.15385 15.4578 2.64346 16.3701 3.47476C16.3004 3.51082 16.2283 3.53931 16.1594 3.57782L11.2215 6.33954C10.7076 6.62601 10.3895 7.15689 10.3873 7.73197L10.3569 14.1578L7.9824 12.8158V6.97897C7.9824 4.31897 10.2186 2.15385 12.9659 2.15385ZM20.1088 4.8104C21.7052 4.92036 23.2215 5.77063 24.08 7.21034C24.7229 8.28823 24.8886 9.54457 24.6014 10.7251C24.5335 10.6842 24.4713 10.6379 24.4015 10.5989L19.4615 7.83714C18.9476 7.55068 18.3146 7.54965 17.7996 7.83504L12.0383 11.0237L12.0513 8.36298L17.2717 5.44351C18.1639 4.94476 19.151 4.74442 20.1088 4.8104ZM5.7687 6.7497C5.76611 6.82635 5.75784 6.90172 5.75784 6.97897V12.5003C5.75784 13.0754 6.07277 13.6072 6.58553 13.8969L12.3185 17.134L9.93323 18.4528L4.71073 15.5355C2.33157 14.2055 1.51441 11.247 2.88807 8.94351C3.53058 7.86624 4.57011 7.0994 5.7687 6.7497ZM18.0668 9.54718L23.2893 12.4645C25.6684 13.7945 26.4856 16.753 25.1119 19.0565C24.4694 20.1338 23.4299 20.9006 22.2313 21.2503C22.2339 21.1737 22.2422 21.0983 22.2422 21.021V15.4997C22.2422 14.9246 21.9272 14.3928 21.4145 14.1031L15.6815 10.866L18.0668 9.54718ZM14.0109 11.7894L15.9812 12.902L15.9704 15.1148L13.9891 16.2106L12.0188 15.0959L12.0296 12.8852L14.0109 11.7894ZM17.6431 13.8422L20.0176 15.1842V21.021C20.0176 23.681 17.7814 25.8462 15.0341 25.8462C13.7481 25.8462 12.5422 25.3565 11.6299 24.5252C11.6996 24.4892 11.7717 24.4607 11.8406 24.4222L16.7785 21.6605C17.2924 21.374 17.6105 20.8431 17.6127 20.268L17.6431 13.8422ZM15.9617 16.9763L15.9487 19.637L10.7283 22.5565C8.34917 23.8865 5.29364 23.0932 3.91997 20.7897C3.27709 19.7118 3.11139 18.4554 3.39859 17.2749C3.4665 17.3158 3.52869 17.3621 3.59845 17.4011L8.53854 20.1629C9.05241 20.4493 9.68545 20.4503 10.2004 20.165L15.9617 16.9763Z" fill="white"/>
</svg>
