<svg width="28" height="26" viewBox="0 0 28 26" fill="none" xmlns="http://www.w3.org/2000/svg">
<path d="M23.8 0.5H4.2C3.08609 0.5 2.0178 0.938987 1.23015 1.72039C0.442499 2.50179 0 3.5616 0 4.66667V15.7778C0 16.8828 0.442499 17.9427 1.23015 18.7241C2.0178 19.5055 3.08609 19.9444 4.2 19.9444H12.6V22.7222H7C6.6287 22.7222 6.2726 22.8685 6.01005 23.129C5.7475 23.3895 5.6 23.7428 5.6 24.1111C5.6 24.4795 5.7475 24.8327 6.01005 25.0932C6.2726 25.3537 6.6287 25.5 7 25.5H21C21.3713 25.5 21.7274 25.3537 21.99 25.0932C22.2525 24.8327 22.4 24.4795 22.4 24.1111C22.4 23.7428 22.2525 23.3895 21.99 23.129C21.7274 22.8685 21.3713 22.7222 21 22.7222H15.4V19.9444H23.8C24.9139 19.9444 25.9822 19.5055 26.7698 18.7241C27.5575 17.9427 28 16.8828 28 15.7778V4.66667C28 3.5616 27.5575 2.50179 26.7698 1.72039C25.9822 0.938987 24.9139 0.5 23.8 0.5ZM25.2 15.7778C25.2 16.1461 25.0525 16.4994 24.7899 16.7599C24.5274 17.0203 24.1713 17.1667 23.8 17.1667H4.2C3.8287 17.1667 3.4726 17.0203 3.21005 16.7599C2.9475 16.4994 2.8 16.1461 2.8 15.7778V4.66667C2.8 4.29831 2.9475 3.94504 3.21005 3.68457C3.4726 3.42411 3.8287 3.27778 4.2 3.27778H23.8C24.1713 3.27778 24.5274 3.42411 24.7899 3.68457C25.0525 3.94504 25.2 4.29831 25.2 4.66667V15.7778Z" fill="white"/>
</svg>
