<svg width="30" height="28" viewBox="0 0 30 28" fill="none" xmlns="http://www.w3.org/2000/svg">
<path d="M28.9997 7.27117V5.78512C28.9997 3.41853 27.0724 1.5 24.6949 1.5H5.32548C2.94804 1.5 1.02071 3.41853 1.02071 5.78512V7.27117H1.02309L1.02071 7.29531C0.870118 8.79116 1.54752 10.2857 2.8331 11.0746C6.50378 13.3274 10.3175 10.7547 10.3175 7.29531C10.3175 7.28706 10.3151 7.27942 10.3151 7.27117H10.3643L10.362 7.29531C10.2114 8.79105 10.8887 10.2854 12.174 11.0744C15.8446 13.3276 19.6586 10.7548 19.6586 7.29531C19.6586 7.28706 19.6563 7.27942 19.6563 7.27117H19.7056L19.7032 7.29531C19.5526 8.79116 20.23 10.2857 21.5156 11.0746C25.1863 13.3274 29 10.7547 29 7.29531C29 7.28706 28.9976 7.27942 28.9976 7.27117H28.9997Z" stroke="white" stroke-width="2" stroke-miterlimit="10" stroke-linecap="round" stroke-linejoin="round"/>
<path d="M26.4308 11.4344V23.1406C26.4308 24.996 24.9198 26.5 23.056 26.5H6.94327C5.07937 26.5 3.56848 24.9959 3.56848 23.1406V11.4619" stroke="white" stroke-width="2" stroke-miterlimit="10" stroke-linecap="round" stroke-linejoin="round"/>
<path d="M18.9541 26.5H11.0456V21.293C11.0456 19.1191 12.816 17.3568 14.9998 17.3568C17.1837 17.3568 18.9541 19.1191 18.9541 21.293V26.5Z" stroke="white" stroke-width="2" stroke-miterlimit="10" stroke-linecap="round" stroke-linejoin="round"/>
</svg>
