<svg width="45" height="45" viewBox="0 0 45 45" fill="none" xmlns="http://www.w3.org/2000/svg">
<path d="M4.09091 0C1.83068 0 0 1.83068 0 4.09091V14.0705L30.9295 45H40.9091C43.1693 45 45 43.1693 45 40.9091V30.9295L14.0705 0H4.09091ZM30.1545 0C27.4217 0 26.0522 3.30453 27.9852 5.23748L39.7625 17.0148C41.6955 18.9457 45 17.5783 45 14.8455V4.09091C45 1.83068 43.1693 0 40.9091 0H30.1545ZM2.7326 27.1023C1.29229 27.2719 0 28.4465 0 30.1545V40.9091C0 43.1693 1.83068 45 4.09091 45H14.8455C17.5783 45 18.9478 41.6955 17.0148 39.7625L5.23748 27.9852C4.51262 27.2611 3.59678 27.0005 2.7326 27.1023Z" fill="white"/>
</svg>
