<svg width="45" height="46" viewBox="0 0 45 46" fill="none" xmlns="http://www.w3.org/2000/svg">
<path d="M4.09091 0.5C1.83068 0.5 0 2.33068 0 4.59091V14.5705L30.9295 45.5H40.9091C43.1693 45.5 45 43.6693 45 41.4091V31.4295L14.0705 0.5H4.09091ZM30.1545 0.5C27.4217 0.5 26.0522 3.80453 27.9852 5.73748L39.7625 17.5148C41.6955 19.4457 45 18.0783 45 15.3455V4.59091C45 2.33068 43.1693 0.5 40.9091 0.5H30.1545ZM2.7326 27.6023C1.29229 27.7719 0 28.9465 0 30.6545V41.4091C0 43.6693 1.83068 45.5 4.09091 45.5H14.8455C17.5783 45.5 18.9478 42.1955 17.0148 40.2625L5.23748 28.4852C4.51262 27.7611 3.59678 27.5005 2.7326 27.6023Z" fill="black"/>
</svg>
