<svg width="71" height="71" viewBox="0 0 71 71" fill="none" xmlns="http://www.w3.org/2000/svg">
<rect x="0.5" y="0.5" width="70" height="70" rx="10" fill="white"/>
<path d="M35.5002 11.1171C21.6948 11.1171 10.5 22.3098 10.5 36.1173C10.5 47.163 17.6633 56.5342 27.5967 59.8399C28.8461 60.0713 29.3048 59.2976 29.3048 58.6373C29.3048 58.0411 29.2816 56.0718 29.2709 53.9828C22.3158 55.4951 20.8482 51.0331 20.8482 51.0331C19.7109 48.1434 18.0723 47.375 18.0723 47.375C15.8041 45.8234 18.2433 45.8552 18.2433 45.8552C20.7538 46.0316 22.0757 48.4315 22.0757 48.4315C24.3054 52.2535 27.9241 51.1486 29.3508 50.5098C29.5751 48.894 30.223 47.7911 30.938 47.1668C25.3851 46.5346 19.5478 44.3909 19.5478 34.8116C19.5478 32.0821 20.5244 29.8519 22.1237 28.1012C21.8641 27.4715 21.0084 24.9287 22.3659 21.4851C22.3659 21.4851 24.4652 20.8132 29.2427 24.0478C31.2369 23.4938 33.3756 23.216 35.5002 23.2065C37.6248 23.216 39.7652 23.4938 41.7631 24.0478C46.5348 20.8132 48.6312 21.4851 48.6312 21.4851C49.992 24.9287 49.1359 27.4715 48.8763 28.1012C50.4793 29.8519 51.4493 32.0821 51.4493 34.8116C51.4493 44.4137 45.6008 46.528 40.0338 47.1469C40.9306 47.9227 41.7296 49.4441 41.7296 51.7766C41.7296 55.1216 41.7006 57.8138 41.7006 58.6373C41.7006 59.3026 42.1506 60.0821 43.4178 59.8366C53.3458 56.5272 60.5 47.1593 60.5 36.1173C60.5 22.3098 49.3069 11.1171 35.5002 11.1171ZM19.8634 46.7304C19.8083 46.8546 19.6129 46.8919 19.4349 46.8066C19.2536 46.725 19.1517 46.5557 19.2105 46.4311C19.2643 46.3032 19.4602 46.2676 19.6411 46.3533C19.8228 46.4348 19.9263 46.6058 19.8634 46.7304ZM21.0931 47.8277C20.9739 47.9382 20.7408 47.8869 20.5827 47.7122C20.4191 47.5379 20.3885 47.3048 20.5094 47.1926C20.6323 47.0821 20.8584 47.1338 21.0223 47.3081C21.1859 47.4845 21.2177 47.7159 21.0931 47.8277ZM21.9368 49.2316C21.7836 49.338 21.5331 49.2382 21.3783 49.0159C21.2251 48.7936 21.2251 48.527 21.3816 48.4202C21.5368 48.3134 21.7836 48.4094 21.9405 48.6301C22.0933 48.8561 22.0933 49.1227 21.9368 49.2316ZM23.3635 50.8576C23.2265 51.0087 22.9346 50.9681 22.721 50.7619C22.5024 50.5603 22.4416 50.2742 22.579 50.1231C22.7177 49.9716 23.0112 50.0143 23.2265 50.2188C23.4434 50.42 23.5097 50.7081 23.3635 50.8576ZM25.2075 51.4065C25.1471 51.6023 24.866 51.6913 24.5828 51.6081C24.3 51.5224 24.115 51.293 24.1721 51.0951C24.2309 50.8981 24.5133 50.8053 24.7985 50.8943C25.0808 50.9796 25.2663 51.2073 25.2075 51.4065ZM27.306 51.6393C27.3131 51.8455 27.073 52.0164 26.7757 52.0202C26.4768 52.0268 26.235 51.8599 26.2317 51.6571C26.2317 51.4488 26.4665 51.2795 26.7654 51.2746C27.0626 51.2688 27.306 51.4344 27.306 51.6393ZM29.3676 51.5603C29.4032 51.7615 29.1966 51.968 28.9015 52.0231C28.6112 52.0761 28.3426 51.9519 28.3057 51.7524C28.2697 51.5462 28.48 51.3396 28.7698 51.2862C29.0654 51.2349 29.3299 51.3557 29.3676 51.5603Z" fill="#161614"/>
</svg>
