<svg width="71" height="71" viewBox="0 0 71 71" fill="none" xmlns="http://www.w3.org/2000/svg">
<rect x="0.5" y="0.5" width="70" height="70" rx="10" fill="white"/>
<path d="M57.5 36.0208C57.5 34.3958 57.3542 32.8333 57.0833 31.3333H35.5V40.1979H47.8333C47.3021 43.0625 45.6875 45.4896 43.2604 47.1146V52.8646H50.6667C55 48.875 57.5 43 57.5 36.0208Z" fill="#4285F4"/>
<path d="M35.5 58.4167C41.6875 58.4167 46.875 56.3646 50.6667 52.8646L43.2605 47.1146C41.2084 48.4896 38.5834 49.3021 35.5 49.3021C29.5313 49.3021 24.4792 45.2708 22.6771 39.8542H15.0209V45.7917C18.7917 53.2812 26.5417 58.4167 35.5 58.4167Z" fill="#34A853"/>
<path d="M22.6771 39.8542C22.2188 38.4792 21.9584 37.0104 21.9584 35.5C21.9584 33.9896 22.2188 32.5208 22.6771 31.1458V25.2083H15.0209C13.4167 28.4018 12.582 31.9263 12.5834 35.5C12.5834 39.1979 13.4688 42.6979 15.0209 45.7917L22.6771 39.8542Z" fill="#FBBC05"/>
<path d="M35.5 21.6979C38.8646 21.6979 41.8855 22.8542 44.2605 25.125L50.8334 18.5521C46.8646 14.8542 41.6771 12.5833 35.5 12.5833C26.5417 12.5833 18.7917 17.7187 15.0209 25.2083L22.6771 31.1458C24.4792 25.7292 29.5313 21.6979 35.5 21.6979Z" fill="#EA4335"/>
</svg>
