<svg width="21" height="17" viewBox="0 0 21 17" fill="none" xmlns="http://www.w3.org/2000/svg">
<g id="Frame 32">
<g id="Vector" filter="url(#filter0_b_311_144)">
<path d="M19.6771 1.00036C19.4695 1.00681 19.2724 1.09724 19.1277 1.2525L6.9053 13.9896L1.87587 8.74833C1.80222 8.6684 1.71401 8.60458 1.61641 8.56062C1.5188 8.51666 1.41376 8.49343 1.30743 8.4923C1.2011 8.49118 1.09562 8.51217 0.997179 8.55405C0.898734 8.59594 0.809298 8.65787 0.734108 8.73623C0.658919 8.81458 0.599488 8.90778 0.559296 9.01038C0.519105 9.11297 0.49896 9.22288 0.500041 9.33369C0.501123 9.44449 0.52341 9.55396 0.565596 9.65568C0.607783 9.7574 0.669021 9.84932 0.745725 9.92606L6.34023 15.7562C6.49012 15.9123 6.69338 16 6.9053 16C7.11723 16 7.32049 15.9123 7.47037 15.7562L20.2578 2.43023C20.3733 2.31324 20.4522 2.16263 20.4841 1.99812C20.5161 1.83361 20.4996 1.66289 20.4368 1.50832C20.374 1.35375 20.2679 1.22255 20.1324 1.13191C19.9968 1.04127 19.8381 0.995415 19.6771 1.00036Z" fill="black" fill-opacity="0.9"/>
<path d="M19.6695 0.75048L19.6694 0.750483C19.3942 0.759028 19.1351 0.878645 18.9462 1.0806C18.9457 1.08107 18.9453 1.08154 18.9448 1.08202L6.9053 13.6285L2.05788 8.57694C1.96212 8.47353 1.84707 8.39033 1.71907 8.33267C1.59023 8.27464 1.45115 8.24381 1.31008 8.24232C1.16901 8.24082 1.02932 8.26869 0.899304 8.32401C0.769317 8.37931 0.651929 8.46079 0.553725 8.56313C0.455543 8.66545 0.378471 8.78658 0.326522 8.91918C0.27458 9.05177 0.248661 9.19349 0.250053 9.33613C0.251446 9.47877 0.280127 9.61994 0.33467 9.75145C0.388872 9.88214 0.467672 10.001 0.566993 10.1009L6.15985 15.9292L6.15989 15.9293C6.35579 16.1334 6.62368 16.25 6.9053 16.25C7.18692 16.25 7.45482 16.1334 7.65072 15.9293L7.65076 15.9292L20.4357 2.60586C20.4362 2.60542 20.4366 2.60498 20.437 2.60454C20.5871 2.45196 20.6885 2.25705 20.7295 2.04576C20.7707 1.83391 20.7495 1.61394 20.6684 1.41425C20.5873 1.21449 20.4494 1.0432 20.2713 0.924085C20.093 0.804874 19.8832 0.743911 19.6695 0.75048Z" stroke="black" stroke-opacity="0.9" stroke-width="0.5"/>
</g>
</g>
<defs>
<filter id="filter0_b_311_144" x="-4" y="-3.5" width="29" height="24" filterUnits="userSpaceOnUse" color-interpolation-filters="sRGB">
<feFlood flood-opacity="0" result="BackgroundImageFix"/>
<feGaussianBlur in="BackgroundImageFix" stdDeviation="2"/>
<feComposite in2="SourceAlpha" operator="in" result="effect1_backgroundBlur_311_144"/>
<feBlend mode="normal" in="SourceGraphic" in2="effect1_backgroundBlur_311_144" result="shape"/>
</filter>
</defs>
</svg>
